<?xml version="1.0" encoding="utf-8"?>
<!-- Generator: Adobe Illustrator 25.4.1, SVG Export Plug-In . SVG Version: 6.00 Build 0)  -->
<svg version="1.1" id="Layer_1" xmlns="http://www.w3.org/2000/svg" xmlns:xlink="http://www.w3.org/1999/xlink" x="0px" y="0px"
	 viewBox="0 0 192.6 21.4" style="enable-background:new 0 0 192.6 21.4;" xml:space="preserve">
<g>
	<path d="M0,0.2h3.7V21H0V0.2z"/>
	<path d="M7.5,7.9l2.2-4.8l0.2,1.3c-0.4,0-0.8-0.1-1.1-0.3C8.4,3.9,8.2,3.6,8,3.3C7.8,2.9,7.7,2.6,7.7,2.2c0-0.4,0.1-0.8,0.3-1.1
		c0.2-0.3,0.5-0.6,0.8-0.8C9.1,0.1,9.5,0,9.9,0c0.4,0,0.8,0.1,1.1,0.3c0.3,0.2,0.6,0.5,0.8,0.8c0.2,0.3,0.3,0.7,0.3,1.2
		c0,0.4-0.1,0.8-0.3,1.3c-0.2,0.5-0.5,1.1-1,1.8L9.4,7.9H7.5z"/>
	<path d="M14.2,5.3h3.6l0.9,5.6v10h-3.6V10.4L14.2,5.3z M24.6,4.9c1.4,0,2.6,0.3,3.5,0.9c1,0.6,1.7,1.4,2.2,2.5
		c0.5,1.1,0.8,2.4,0.8,4V21h-3.6v-8.1c0-1.6-0.3-2.9-1-3.7c-0.7-0.8-1.7-1.3-3-1.3c-0.9,0-1.8,0.2-2.4,0.7s-1.2,1.1-1.6,1.9
		s-0.6,1.8-0.6,2.8l-1.3-0.7c0.2-1.6,0.6-3,1.2-4.1c0.6-1.1,1.5-2,2.5-2.6C22.2,5.2,23.3,4.9,24.6,4.9z M36.8,4.9
		c1.4,0,2.6,0.3,3.5,0.9c1,0.6,1.7,1.4,2.2,2.5c0.5,1.1,0.8,2.4,0.8,4V21h-3.6v-8.1c0-1.6-0.3-2.9-1-3.7c-0.7-0.8-1.7-1.3-3-1.3
		c-0.9,0-1.8,0.2-2.4,0.7s-1.2,1.1-1.6,1.9s-0.6,1.8-0.6,2.8l-1.3-0.7c0.2-1.6,0.6-3,1.2-4.1c0.6-1.1,1.5-2,2.5-2.6
		C34.5,5.2,35.6,4.9,36.8,4.9z"/>
	<path d="M51.8,0.2h4.1l8.5,10.6h-2l8.5-10.6H75L64.5,13.3l-2.3,0L51.8,0.2z M61.6,21v-9.9h3.7V21H61.6z"/>
	<path d="M80.4,21.4c-1.4,0-2.7-0.3-3.7-0.9S75,19,74.4,17.9c-0.5-1.1-0.8-2.4-0.8-4V5.3h3.6v8.1c0,1.6,0.4,2.9,1.1,3.7
		c0.7,0.8,1.8,1.3,3.2,1.3c1,0,1.9-0.2,2.6-0.7s1.3-1.1,1.7-1.9c0.4-0.8,0.6-1.8,0.6-2.9l1.2,0.7c-0.1,1.6-0.6,3-1.2,4.1
		c-0.7,1.2-1.5,2-2.6,2.7C82.9,21,81.7,21.4,80.4,21.4z M87.4,21l-0.9-5.6v-10h3.6v10.6L91,21H87.4z"/>
	<path d="M93.3,5.3h3.6l0.9,5.7v10h-3.6V10.3L93.3,5.3z M105.8,5.2v3.2c-0.4-0.1-0.8-0.2-1.3-0.2C104,8,103.6,8,103.1,8
		c-1,0-1.9,0.2-2.7,0.7s-1.4,1.1-1.9,2c-0.5,0.9-0.7,1.9-0.7,3.2l-0.8-1c0.1-1.1,0.3-2.1,0.6-3.1c0.3-1,0.7-1.8,1.3-2.5
		c0.5-0.7,1.2-1.3,2-1.7c0.8-0.4,1.7-0.6,2.8-0.6c0.4,0,0.7,0,1.1,0.1C105.2,5,105.5,5.1,105.8,5.2z"/>
	<path d="M123.2,13.1c-0.4,1.6-0.9,3.1-1.7,4.3c-0.8,1.2-1.8,2.2-3,2.9c-1.2,0.7-2.5,1-4,1c-1.5,0-2.9-0.3-4.1-1s-2.1-1.7-2.8-2.9
		s-1-2.7-1-4.3c0-1.6,0.3-3.1,1-4.3c0.7-1.2,1.6-2.2,2.8-2.9s2.5-1,4.1-1c1.5,0,2.8,0.3,4,1c1.2,0.7,2.2,1.6,3,2.9
		C122.3,10,122.9,11.5,123.2,13.1z M110.3,13.1c0,1.1,0.2,2,0.6,2.8c0.4,0.8,1,1.4,1.8,1.9c0.8,0.5,1.6,0.7,2.6,0.7
		c1,0,1.9-0.2,2.8-0.7c0.8-0.5,1.6-1.1,2.3-1.9c0.7-0.8,1.2-1.7,1.6-2.8c-0.4-1.1-0.9-2-1.6-2.8s-1.4-1.4-2.3-1.9
		c-0.8-0.5-1.8-0.7-2.8-0.7c-1,0-1.8,0.2-2.6,0.7c-0.8,0.5-1.4,1.1-1.8,1.9S110.3,12.1,110.3,13.1z M122.1,21l-0.6-5.8l0.7-2l-0.7-2
		l0.6-5.8h3.7l-0.8,7.8l0.8,7.8H122.1z"/>
	<path d="M140.7,0.2v19.1l-1.6-1.6h15.6V21H137V0.2H140.7z"/>
	<path d="M164.9,21.4c-1.8,0-3.4-0.3-4.9-1c-1.4-0.7-2.5-1.7-3.3-2.9s-1.2-2.7-1.2-4.3c0-1.6,0.4-3,1.1-4.3c0.8-1.2,1.8-2.2,3.2-2.9
		s2.9-1,4.7-1c1.8,0,3.3,0.4,4.5,1.2c1.3,0.8,2.3,1.9,3,3.3c0.7,1.4,1.1,3.1,1.1,5h-14.7v-2.7h12.9l-1.8,1c-0.1-1-0.3-1.9-0.7-2.7
		c-0.4-0.7-1-1.3-1.7-1.7s-1.6-0.6-2.6-0.6c-1.1,0-2,0.2-2.8,0.6c-0.8,0.4-1.4,1-1.8,1.8c-0.4,0.8-0.7,1.7-0.7,2.7
		c0,1.2,0.3,2.2,0.8,3c0.5,0.8,1.3,1.5,2.2,2c1,0.5,2.1,0.7,3.4,0.7c1.2,0,2.4-0.2,3.7-0.6c1.3-0.4,2.4-0.9,3.3-1.6V19
		c-1,0.7-2.1,1.3-3.5,1.7C167.7,21.1,166.3,21.4,164.9,21.4z"/>
	<path d="M184.5,21.4c-1.8,0-3.4-0.3-4.9-1c-1.4-0.7-2.5-1.7-3.3-2.9s-1.2-2.7-1.2-4.3c0-1.6,0.4-3,1.1-4.3c0.8-1.2,1.8-2.2,3.2-2.9
		s2.9-1,4.7-1c1.8,0,3.3,0.4,4.5,1.2c1.3,0.8,2.3,1.9,3,3.3c0.7,1.4,1.1,3.1,1.1,5h-14.7v-2.7h12.9l-1.8,1c-0.1-1-0.3-1.9-0.7-2.7
		c-0.4-0.7-1-1.3-1.7-1.7S185,7.7,184,7.7c-1.1,0-2,0.2-2.8,0.6c-0.8,0.4-1.4,1-1.8,1.8c-0.4,0.8-0.7,1.7-0.7,2.7
		c0,1.2,0.3,2.2,0.8,3c0.5,0.8,1.3,1.5,2.2,2c1,0.5,2.1,0.7,3.4,0.7c1.2,0,2.4-0.2,3.7-0.6c1.3-0.4,2.4-0.9,3.3-1.6V19
		c-1,0.7-2.1,1.3-3.5,1.7C187.3,21.1,185.9,21.4,184.5,21.4z"/>
</g>
</svg>
