<?xml version="1.0" encoding="utf-8"?>
<!-- Generator: Adobe Illustrator 25.4.1, SVG Export Plug-In . SVG Version: 6.00 Build 0)  -->
<svg version="1.1" id="Layer_1" xmlns="http://www.w3.org/2000/svg" xmlns:xlink="http://www.w3.org/1999/xlink" x="0px" y="0px"
	 viewBox="0 0 56.9 8.8" style="enable-background:new 0 0 56.9 8.8;" xml:space="preserve">
<g>
	<path d="M0,0h1.2L5,4.6H4.3L8,0h1.2L5,5.3l-0.7,0L0,0z M4.1,8.6V4.6h1.1v4.1H4.1z"/>
	<path d="M11.6,8.8c-0.6,0-1.1-0.1-1.5-0.4c-0.4-0.2-0.7-0.6-0.9-1c-0.2-0.5-0.3-1-0.3-1.7V2.2h1v3.4c0,0.8,0.2,1.4,0.5,1.7
		c0.3,0.4,0.9,0.6,1.5,0.6c0.5,0,0.9-0.1,1.2-0.3c0.3-0.2,0.6-0.5,0.8-0.9c0.2-0.4,0.3-0.8,0.3-1.3l0.4,0.2c0,0.7-0.2,1.2-0.5,1.7
		c-0.3,0.5-0.6,0.9-1.1,1.1C12.6,8.6,12.1,8.8,11.6,8.8z M14.5,8.6l-0.4-2.2V2.2h1v4.4l0.4,2H14.5z"/>
	<path d="M16.7,2.2h1l0.4,2.2v4.3h-1V4.2L16.7,2.2z M21.6,2.1v1C21.4,3,21.3,3,21.1,3s-0.4,0-0.6,0c-0.5,0-0.9,0.1-1.2,0.3
		c-0.4,0.2-0.6,0.5-0.8,0.9S18.1,5,18.1,5.6l-0.3-0.4c0-0.5,0.1-0.9,0.2-1.3c0.1-0.4,0.3-0.7,0.6-1c0.2-0.3,0.5-0.5,0.9-0.7
		S20.2,2,20.7,2c0.2,0,0.3,0,0.5,0C21.3,2.1,21.5,2.1,21.6,2.1z"/>
	<path d="M28.9,5.4c-0.2,0.7-0.4,1.3-0.8,1.8c-0.3,0.5-0.8,0.9-1.3,1.2c-0.5,0.3-1,0.4-1.6,0.4c-0.6,0-1.2-0.1-1.7-0.4
		c-0.5-0.3-0.9-0.7-1.2-1.2c-0.3-0.5-0.4-1.1-0.4-1.8c0-0.7,0.1-1.3,0.4-1.8c0.3-0.5,0.7-0.9,1.2-1.2C24,2.1,24.5,2,25.2,2
		c0.6,0,1.1,0.1,1.6,0.4s0.9,0.7,1.3,1.2C28.4,4.1,28.7,4.7,28.9,5.4z M23,5.4c0,0.5,0.1,0.9,0.3,1.3c0.2,0.4,0.5,0.7,0.8,0.9
		c0.4,0.2,0.8,0.3,1.2,0.3c0.5,0,0.9-0.1,1.3-0.3c0.4-0.2,0.7-0.5,1-0.9c0.3-0.4,0.6-0.8,0.7-1.3c-0.2-0.5-0.4-0.9-0.7-1.3
		s-0.6-0.7-1-0.9c-0.4-0.2-0.8-0.3-1.3-0.3c-0.5,0-0.9,0.1-1.2,0.3c-0.4,0.2-0.6,0.5-0.8,0.9S23,4.9,23,5.4z M28.4,8.6l-0.2-2.5
		l0.3-0.8l-0.3-0.8l0.2-2.5h1.1l-0.3,3.2l0.3,3.2H28.4z"/>
	<path d="M35.5,0v8.1L35,7.7h6.5v1h-7.1V0H35.5z"/>
	<path d="M45.6,8.8c-0.7,0-1.4-0.1-2-0.4c-0.6-0.3-1-0.7-1.3-1.2c-0.3-0.5-0.5-1.1-0.5-1.8c0-0.7,0.2-1.3,0.5-1.8s0.7-0.9,1.3-1.2
		C44.1,2.1,44.7,2,45.4,2c0.7,0,1.3,0.2,1.8,0.5c0.5,0.3,0.9,0.7,1.2,1.3c0.3,0.6,0.4,1.2,0.4,1.9h-6.3V4.9h5.8l-0.6,0.4
		c0-0.5-0.1-0.9-0.3-1.3c-0.2-0.4-0.5-0.6-0.8-0.8s-0.8-0.3-1.2-0.3c-0.5,0-0.9,0.1-1.3,0.3S43.4,3.7,43.2,4s-0.3,0.8-0.3,1.3
		c0,0.5,0.1,1,0.4,1.4c0.2,0.4,0.6,0.7,1,0.9s0.9,0.3,1.5,0.3c0.5,0,1.1-0.1,1.6-0.3c0.5-0.2,1-0.4,1.4-0.7v0.8
		c-0.4,0.3-0.9,0.6-1.4,0.8C46.7,8.7,46.1,8.8,45.6,8.8z"/>
	<path d="M53.6,8.8c-0.7,0-1.4-0.1-2-0.4c-0.6-0.3-1-0.7-1.3-1.2c-0.3-0.5-0.5-1.1-0.5-1.8c0-0.7,0.2-1.3,0.5-1.8s0.7-0.9,1.3-1.2
		C52.1,2.1,52.7,2,53.4,2c0.7,0,1.3,0.2,1.8,0.5c0.5,0.3,0.9,0.7,1.2,1.3c0.3,0.6,0.4,1.2,0.4,1.9h-6.3V4.9h5.8l-0.6,0.4
		c0-0.5-0.1-0.9-0.3-1.3c-0.2-0.4-0.5-0.6-0.8-0.8s-0.8-0.3-1.2-0.3c-0.5,0-0.9,0.1-1.3,0.3S51.4,3.7,51.2,4s-0.3,0.8-0.3,1.3
		c0,0.5,0.1,1,0.4,1.4c0.2,0.4,0.6,0.7,1,0.9s0.9,0.3,1.5,0.3c0.5,0,1.1-0.1,1.6-0.3c0.5-0.2,1-0.4,1.4-0.7v0.8
		c-0.4,0.3-0.9,0.6-1.4,0.8C54.7,8.7,54.1,8.8,53.6,8.8z"/>
</g>
</svg>
