<?xml version="1.0" encoding="utf-8"?>
<!-- Generator: Adobe Illustrator 25.4.1, SVG Export Plug-In . SVG Version: 6.00 Build 0)  -->
<svg version="1.1" id="Layer_1" xmlns="http://www.w3.org/2000/svg" xmlns:xlink="http://www.w3.org/1999/xlink" x="0px" y="0px"
	 viewBox="0 0 58.3 10.5" style="enable-background:new 0 0 58.3 10.5;" xml:space="preserve">
<g>
	<path d="M3.3,6.3L0,0h1.4l2.7,5.4L3.6,5.2h1.7L4.7,5.4L7.3,0h1.3L5.6,6.3H3.3z M3.8,10.2V6h1.3v4.3H3.8z"/>
	<path d="M12.3,10.5c-0.9,0-1.6-0.3-2-0.9C9.8,9,9.6,8.2,9.6,7.1V2.7h1.3v4.6c0,0.6,0.2,1,0.5,1.4c0.3,0.3,0.7,0.5,1.3,0.5
		c0.6,0,1-0.2,1.4-0.5c0.4-0.4,0.5-0.9,0.5-1.5V2.7h1.3v7.5h-1.1V7h0.2c0,0.7-0.1,1.4-0.3,1.9c-0.2,0.5-0.5,0.9-0.9,1.2
		C13.5,10.3,13,10.5,12.3,10.5L12.3,10.5z"/>
	<path d="M18.6,10.2V2.7h1.1v3.1h-0.1c0-1.1,0.2-1.9,0.7-2.4c0.5-0.5,1.2-0.8,2.2-0.8h0.3v1.2h-0.5c-0.7,0-1.3,0.2-1.7,0.6
		c-0.4,0.4-0.6,1-0.6,1.7v4.1H18.6z"/>
	<path d="M26.3,10.4c-0.6,0-1-0.1-1.5-0.3c-0.4-0.2-0.7-0.5-0.9-0.8c-0.2-0.4-0.3-0.8-0.3-1.3c0-0.5,0.1-1,0.4-1.3
		c0.2-0.4,0.6-0.6,1-0.8s1-0.3,1.7-0.3h2v1h-2.1c-0.5,0-1,0.1-1.2,0.4c-0.3,0.3-0.4,0.6-0.4,1s0.1,0.7,0.4,1
		c0.3,0.3,0.7,0.4,1.2,0.4c0.3,0,0.6-0.1,0.9-0.2c0.3-0.1,0.5-0.3,0.7-0.6s0.3-0.7,0.3-1.1L28.9,8c0,0.5-0.2,1-0.4,1.3
		c-0.2,0.4-0.5,0.6-0.9,0.8C27.3,10.3,26.9,10.4,26.3,10.4z M28.8,10.2V8h-0.2V5.4c0-0.5-0.1-0.9-0.4-1.2S27.5,3.8,27,3.8
		c-0.3,0-0.6,0-0.9,0c-0.3,0-0.6,0-0.9,0c-0.3,0-0.5,0-0.7,0V2.7c0.2,0,0.4,0,0.7,0c0.2,0,0.5,0,0.7,0c0.2,0,0.5,0,0.7,0
		c0.8,0,1.4,0.1,1.9,0.3c0.5,0.2,0.8,0.5,1.1,0.9c0.2,0.4,0.4,1,0.4,1.7v4.7H28.8z"/>
	<path d="M35.7,10.2V0h1.4v10.2H35.7z M36.8,10.2V9h4.7v1.2H36.8z"/>
	<path d="M46.3,10.5c-0.7,0-1.2-0.1-1.7-0.3c-0.5-0.2-0.9-0.5-1.2-0.9S42.9,8.5,42.8,8c-0.1-0.5-0.2-0.9-0.2-1.4V6.4
		c0-0.5,0.1-1,0.2-1.4c0.1-0.5,0.4-0.9,0.7-1.2s0.7-0.7,1.1-0.9c0.5-0.2,1-0.3,1.6-0.3c0.8,0,1.5,0.2,2,0.5c0.5,0.4,0.9,0.8,1.2,1.4
		c0.3,0.6,0.4,1.1,0.4,1.8v0.6h-6.6v-1h5.7l-0.3,0.5c0-0.5-0.1-1-0.3-1.4c-0.2-0.4-0.4-0.7-0.8-0.9c-0.3-0.2-0.8-0.3-1.3-0.3
		c-0.5,0-1,0.1-1.3,0.4c-0.3,0.2-0.6,0.6-0.8,1c-0.2,0.4-0.3,0.9-0.3,1.5c0,0.5,0.1,1,0.3,1.4c0.2,0.4,0.4,0.8,0.8,1
		c0.4,0.2,0.8,0.4,1.4,0.4c0.6,0,1.1-0.1,1.4-0.4s0.6-0.6,0.7-0.9h1.3c-0.1,0.5-0.3,1-0.6,1.3c-0.3,0.4-0.7,0.7-1.2,0.9
		C47.4,10.4,46.9,10.5,46.3,10.5z"/>
	<path d="M54.9,10.5c-0.7,0-1.2-0.1-1.7-0.3c-0.5-0.2-0.9-0.5-1.2-0.9S51.5,8.5,51.3,8c-0.1-0.5-0.2-0.9-0.2-1.4V6.4
		c0-0.5,0.1-1,0.2-1.4c0.1-0.5,0.4-0.9,0.7-1.2s0.7-0.7,1.1-0.9c0.5-0.2,1-0.3,1.6-0.3c0.8,0,1.5,0.2,2,0.5c0.5,0.4,0.9,0.8,1.2,1.4
		c0.3,0.6,0.4,1.1,0.4,1.8v0.6h-6.6v-1h5.7l-0.3,0.5c0-0.5-0.1-1-0.3-1.4C56.6,4.5,56.4,4.2,56,4c-0.3-0.2-0.8-0.3-1.3-0.3
		c-0.5,0-1,0.1-1.3,0.4c-0.3,0.2-0.6,0.6-0.8,1c-0.2,0.4-0.3,0.9-0.3,1.5c0,0.5,0.1,1,0.3,1.4c0.2,0.4,0.4,0.8,0.8,1
		c0.4,0.2,0.8,0.4,1.4,0.4c0.6,0,1.1-0.1,1.4-0.4S56.9,8.3,57,8h1.3c-0.1,0.5-0.3,1-0.6,1.3c-0.3,0.4-0.7,0.7-1.2,0.9
		C56,10.4,55.4,10.5,54.9,10.5z"/>
</g>
</svg>
