<svg width="196" height="27" viewBox="0 0 196 27" fill="none" xmlns="http://www.w3.org/2000/svg">
<path d="M3.372 26H0.24V0.799998H3.372V26ZM10.3417 8.612H7.85766L8.68566 0.799998H11.9617L10.3417 8.612ZM35.959 7.82C37.879 7.82 39.403 8.408 40.531 9.584C41.683 10.76 42.259 12.356 42.259 14.372V26H39.343V15.092C39.343 13.652 38.983 12.548 38.263 11.78C37.567 11.012 36.547 10.628 35.203 10.628C33.907 10.628 32.839 11.036 31.999 11.852C31.183 12.668 30.775 13.712 30.775 14.984V26H27.859V15.092C27.859 13.652 27.499 12.548 26.779 11.78C26.083 11.012 25.063 10.628 23.719 10.628C22.423 10.628 21.355 11.06 20.515 11.924C19.699 12.788 19.291 13.892 19.291 15.236V26H16.375V8.36H18.895C18.919 9.488 18.727 10.652 18.319 11.852H19.147C19.555 10.532 20.203 9.536 21.091 8.864C22.003 8.168 23.131 7.82 24.475 7.82C25.819 7.82 26.971 8.192 27.931 8.936C28.915 9.656 29.551 10.64 29.839 11.888H30.595C30.859 10.64 31.471 9.656 32.431 8.936C33.391 8.192 34.567 7.82 35.959 7.82ZM62.7346 26V16.352L54.3106 0.799998H57.7666L62.4466 9.44C62.8066 10.088 63.0826 10.904 63.2746 11.888C63.4906 12.872 63.5986 13.892 63.5986 14.948H65.0386C65.0386 13.892 65.1346 12.872 65.3266 11.888C65.5426 10.904 65.8306 10.088 66.1906 9.44L70.8706 0.799998H74.3266L65.8666 16.352V26H62.7346ZM81.5893 26.54C79.5733 26.54 78.0013 25.868 76.8733 24.524C75.7453 23.18 75.1813 21.308 75.1813 18.908V8.36H78.0973V18.548C78.0973 20.18 78.4693 21.452 79.2133 22.364C79.9813 23.276 81.0253 23.732 82.3453 23.732C83.7613 23.732 84.8653 23.3 85.6573 22.436C86.4733 21.548 86.8813 20.324 86.8813 18.764V8.36H89.7973V26H87.2773C87.2533 24.872 87.4453 23.708 87.8533 22.508H87.0973C86.6893 23.828 86.0173 24.836 85.0813 25.532C84.1693 26.204 83.0053 26.54 81.5893 26.54ZM103.674 7.82C105.258 7.82 106.518 8.312 107.454 9.296C108.39 10.256 108.858 11.588 108.858 13.292V15.056H105.942V14.012C105.942 12.956 105.642 12.128 105.042 11.528C104.466 10.928 103.674 10.628 102.666 10.628C101.49 10.628 100.554 11.072 99.8576 11.96C99.1856 12.848 98.8496 14.06 98.8496 15.596V26H95.9336V8.36H98.4536C98.4776 9.488 98.2856 10.652 97.8776 11.852H98.7056C99.4256 9.164 101.082 7.82 103.674 7.82ZM117.602 26.54C115.658 26.54 114.134 26.06 113.03 25.1C111.95 24.14 111.41 22.808 111.41 21.104C111.41 19.664 111.962 18.464 113.066 17.504C114.194 16.52 115.658 15.956 117.458 15.812L123.902 15.272V15.02C123.902 13.58 123.482 12.428 122.642 11.564C121.802 10.7 120.674 10.268 119.258 10.268C118.01 10.268 116.99 10.604 116.198 11.276C115.406 11.948 114.962 12.884 114.866 14.084H111.878C111.95 12.02 112.646 10.4 113.966 9.224C115.286 8.048 117.05 7.46 119.258 7.46C121.586 7.46 123.422 8.144 124.766 9.512C126.134 10.856 126.818 12.692 126.818 15.02V26H124.622L124.55 22.976H123.722C123.434 24.104 122.75 24.98 121.67 25.604C120.614 26.228 119.258 26.54 117.602 26.54ZM117.962 23.732C119.81 23.732 121.262 23.24 122.318 22.256C123.374 21.248 123.902 19.844 123.902 18.044V17.972L117.458 18.512C116.498 18.584 115.742 18.86 115.19 19.34C114.662 19.796 114.398 20.384 114.398 21.104C114.398 21.92 114.71 22.568 115.334 23.048C115.958 23.504 116.834 23.732 117.962 23.732ZM144.7 0.799998V23.192H156.868V26H141.568V0.799998H144.7ZM168.47 26.54C165.518 26.54 163.202 25.7 161.522 24.02C159.866 22.34 159.038 20.048 159.038 17.144C159.038 15.248 159.386 13.604 160.082 12.212C160.802 10.796 161.81 9.716 163.106 8.972C164.426 8.204 165.95 7.82 167.678 7.82C169.31 7.82 170.786 8.192 172.106 8.936C173.426 9.656 174.458 10.676 175.202 11.996C175.946 13.292 176.318 14.768 176.318 16.424C176.318 17.576 176.234 18.38 176.066 18.836H162.242C162.53 20.372 163.214 21.572 164.294 22.436C165.374 23.3 166.766 23.732 168.47 23.732C169.718 23.732 170.762 23.492 171.602 23.012C172.466 22.508 172.898 21.872 172.898 21.104V21.068H175.958V21.104C175.958 22.136 175.622 23.072 174.95 23.912C174.302 24.728 173.402 25.376 172.25 25.856C171.122 26.312 169.862 26.54 168.47 26.54ZM173.222 16.208C173.054 14.48 172.478 13.124 171.494 12.14C170.51 11.132 169.238 10.628 167.678 10.628C166.118 10.628 164.846 11.132 163.862 12.14C162.878 13.124 162.302 14.48 162.134 16.208H173.222ZM187.841 26.54C184.889 26.54 182.573 25.7 180.893 24.02C179.237 22.34 178.409 20.048 178.409 17.144C178.409 15.248 178.757 13.604 179.453 12.212C180.173 10.796 181.181 9.716 182.477 8.972C183.797 8.204 185.321 7.82 187.049 7.82C188.681 7.82 190.157 8.192 191.477 8.936C192.797 9.656 193.829 10.676 194.573 11.996C195.317 13.292 195.689 14.768 195.689 16.424C195.689 17.576 195.605 18.38 195.437 18.836H181.613C181.901 20.372 182.585 21.572 183.665 22.436C184.745 23.3 186.137 23.732 187.841 23.732C189.089 23.732 190.133 23.492 190.973 23.012C191.837 22.508 192.269 21.872 192.269 21.104V21.068H195.329V21.104C195.329 22.136 194.993 23.072 194.321 23.912C193.673 24.728 192.773 25.376 191.621 25.856C190.493 26.312 189.233 26.54 187.841 26.54ZM192.593 16.208C192.425 14.48 191.849 13.124 190.865 12.14C189.881 11.132 188.609 10.628 187.049 10.628C185.489 10.628 184.217 11.132 183.233 12.14C182.249 13.124 181.673 14.48 181.505 16.208H192.593Z" fill="black"/>
</svg>
