<?xml version="1.0" encoding="utf-8"?>
<!-- Generator: Adobe Illustrator 25.4.1, SVG Export Plug-In . SVG Version: 6.00 Build 0)  -->
<svg version="1.1" id="Layer_1" xmlns="http://www.w3.org/2000/svg" xmlns:xlink="http://www.w3.org/1999/xlink" x="0px" y="0px"
	 viewBox="0 0 196 27" style="enable-background:new 0 0 196 27;" xml:space="preserve">
<path d="M3.4,26H0.2V0.8h3.1V26z M10.3,8.6H7.9l0.8-7.8H12L10.3,8.6z M36,7.8c1.9,0,3.4,0.6,4.6,1.8c1.2,1.2,1.7,2.8,1.7,4.8V26
	h-2.9V15.1c0-1.4-0.4-2.5-1.1-3.3c-0.7-0.8-1.7-1.2-3.1-1.2c-1.3,0-2.4,0.4-3.2,1.2c-0.8,0.8-1.2,1.9-1.2,3.1v11h-2.9V15.1
	c0-1.4-0.4-2.5-1.1-3.3c-0.7-0.8-1.7-1.2-3.1-1.2c-1.3,0-2.4,0.4-3.2,1.3c-0.8,0.9-1.2,2-1.2,3.3V26h-2.9V8.4h2.5
	c0,1.1-0.2,2.3-0.6,3.5h0.8c0.4-1.3,1.1-2.3,1.9-3c0.9-0.7,2-1,3.4-1s2.5,0.4,3.5,1.1c1,0.7,1.6,1.7,1.9,3h0.8
	c0.3-1.2,0.9-2.2,1.8-3C33.4,8.2,34.6,7.8,36,7.8z M62.7,26v-9.6L54.3,0.8h3.5l4.7,8.6c0.4,0.6,0.6,1.5,0.8,2.4c0.2,1,0.3,2,0.3,3.1
	H65c0-1.1,0.1-2.1,0.3-3.1c0.2-1,0.5-1.8,0.9-2.4l4.7-8.6h3.5l-8.5,15.6V26H62.7z M81.6,26.5c-2,0-3.6-0.7-4.7-2s-1.7-3.2-1.7-5.6
	V8.4h2.9v10.2c0,1.6,0.4,2.9,1.1,3.8c0.8,0.9,1.8,1.4,3.1,1.4c1.4,0,2.5-0.4,3.3-1.3c0.8-0.9,1.2-2.1,1.2-3.7V8.4h2.9V26h-2.5
	c0-1.1,0.2-2.3,0.6-3.5h-0.8c-0.4,1.3-1.1,2.3-2,3C84.2,26.2,83,26.5,81.6,26.5z M103.7,7.8c1.6,0,2.8,0.5,3.8,1.5
	c0.9,1,1.4,2.3,1.4,4v1.8h-2.9v-1c0-1.1-0.3-1.9-0.9-2.5c-0.6-0.6-1.4-0.9-2.4-0.9c-1.2,0-2.1,0.4-2.8,1.3c-0.7,0.9-1,2.1-1,3.6V26
	h-2.9V8.4h2.5c0,1.1-0.2,2.3-0.6,3.5h0.8C99.4,9.2,101.1,7.8,103.7,7.8z M117.6,26.5c-1.9,0-3.5-0.5-4.6-1.4c-1.1-1-1.6-2.3-1.6-4
	c0-1.4,0.6-2.6,1.7-3.6c1.1-1,2.6-1.5,4.4-1.7l6.4-0.5V15c0-1.4-0.4-2.6-1.3-3.5c-0.8-0.9-2-1.3-3.4-1.3c-1.2,0-2.3,0.3-3.1,1
	s-1.2,1.6-1.3,2.8h-3c0.1-2.1,0.8-3.7,2.1-4.9s3.1-1.8,5.3-1.8c2.3,0,4.2,0.7,5.5,2.1c1.4,1.3,2.1,3.2,2.1,5.5v11h-2.2l-0.1-3h-0.8
	c-0.3,1.1-1,2-2.1,2.6C120.6,26.2,119.3,26.5,117.6,26.5z M118,23.7c1.8,0,3.3-0.5,4.4-1.5c1.1-1,1.6-2.4,1.6-4.2V18l-6.4,0.5
	c-1,0.1-1.7,0.3-2.3,0.8c-0.5,0.5-0.8,1-0.8,1.8c0,0.8,0.3,1.5,0.9,1.9C116,23.5,116.8,23.7,118,23.7z M144.7,0.8v22.4h12.2V26
	h-15.3V0.8H144.7z M168.5,26.5c-3,0-5.3-0.8-6.9-2.5c-1.7-1.7-2.5-4-2.5-6.9c0-1.9,0.3-3.5,1-4.9c0.7-1.4,1.7-2.5,3-3.2
	c1.3-0.8,2.8-1.2,4.6-1.2c1.6,0,3.1,0.4,4.4,1.1c1.3,0.7,2.4,1.7,3.1,3.1c0.7,1.3,1.1,2.8,1.1,4.4c0,1.2-0.1,2-0.3,2.4h-13.8
	c0.3,1.5,1,2.7,2.1,3.6c1.1,0.9,2.5,1.3,4.2,1.3c1.2,0,2.3-0.2,3.1-0.7c0.9-0.5,1.3-1.1,1.3-1.9v0h3.1v0c0,1-0.3,2-1,2.8
	c-0.6,0.8-1.5,1.5-2.7,1.9C171.1,26.3,169.9,26.5,168.5,26.5z M173.2,16.2c-0.2-1.7-0.7-3.1-1.7-4.1c-1-1-2.3-1.5-3.8-1.5
	c-1.6,0-2.8,0.5-3.8,1.5c-1,1-1.6,2.3-1.7,4.1H173.2z M187.8,26.5c-3,0-5.3-0.8-6.9-2.5c-1.7-1.7-2.5-4-2.5-6.9c0-1.9,0.3-3.5,1-4.9
	c0.7-1.4,1.7-2.5,3-3.2c1.3-0.8,2.8-1.2,4.6-1.2c1.6,0,3.1,0.4,4.4,1.1c1.3,0.7,2.4,1.7,3.1,3.1c0.7,1.3,1.1,2.8,1.1,4.4
	c0,1.2-0.1,2-0.3,2.4h-13.8c0.3,1.5,1,2.7,2.1,3.6c1.1,0.9,2.5,1.3,4.2,1.3c1.2,0,2.3-0.2,3.1-0.7c0.9-0.5,1.3-1.1,1.3-1.9v0h3.1v0
	c0,1-0.3,2-1,2.8c-0.6,0.8-1.5,1.5-2.7,1.9C190.5,26.3,189.2,26.5,187.8,26.5z M192.6,16.2c-0.2-1.7-0.7-3.1-1.7-4.1
	c-1-1-2.3-1.5-3.8-1.5s-2.8,0.5-3.8,1.5c-1,1-1.6,2.3-1.7,4.1H192.6z"/>
</svg>
